<svg xmlns="http://www.w3.org/2000/svg" viewBox="0 0 400 300">
  <rect fill="#ecfdf5" width="400" height="300"/>
  
  <!-- Person at desk -->
  <rect x="100" y="180" width="200" height="10" rx="2" fill="#1e293b"/>
  <rect x="120" y="150" width="160" height="30" rx="3" fill="#64748b"/>
  <rect x="130" y="160" width="140" height="15" rx="2" fill="#94a3b8"/>
  
  <!-- Monitor -->
  <rect x="170" y="100" width="60" height="50" rx="3" fill="#1e293b"/>
  <rect x="175" y="105" width="50" height="40" rx="2" fill="#059669"/>
  <rect x="190" y="150" width="20" height="10" fill="#1e293b"/>
  
  <!-- Person -->
  <circle cx="200" cy="70" r="20" fill="#fbbf24"/>
  <rect x="185" y="90" width="30" height="10" rx="2" fill="#059669"/>
  
  <!-- Floating elements -->
  <circle cx="80" cy="80" r="15" fill="#d1fae5" opacity="0.8"/>
  <circle cx="320" cy="100" r="20" fill="#dcfce7" opacity="0.8"/>
  <rect x="60" y="120" width="30" height="30" rx="5" fill="#fef3c7" opacity="0.8"/>
  <rect x="300" y="160" width="40" height="25" rx="5" fill="#fce7f3" opacity="0.8"/>
  
  <!-- Code symbols -->
  <text x="70" y="140" font-family="monospace" font-size="12" fill="#64748b">&lt;/&gt;</text>
  <text x="310" y="180" font-family="monospace" font-size="10" fill="#64748b">{  }</text>
  
  <!-- Stars -->
  <circle cx="340" cy="60" r="3" fill="#fbbf24"/>
  <circle cx="50" cy="200" r="2" fill="#059669"/>
  <circle cx="350" cy="220" r="2" fill="#10b981"/>
</svg>
